<svg width="508" height="208" viewBox="0 0 508 208" fill="none" xmlns="http://www.w3.org/2000/svg">
<g filter="url(#filter0_d_14_1460)">
<path d="M4 160.391V127.755L98.6683 0.836811H140.961V126.36H166.729V160.391H140.961V200H101.189V160.391H4ZM104.27 46.8619L44.3321 126.36H104.27V46.8619Z" fill="url(#paint0_linear_14_1460)"/>
<path d="M177.748 99.8605C177.748 166.62 202.956 200 253.371 200C280.072 200 299.305 191.074 311.068 173.222C322.832 155.37 328.713 130.916 328.713 99.8605C328.713 68.9911 322.832 44.6304 311.068 26.7782C299.305 8.92607 280.072 0 253.371 0C202.956 0 177.748 33.2868 177.748 99.8605Z" fill="url(#paint1_linear_14_1460)"/>
<path d="M341.271 160.391V127.755L435.94 0.836811H478.232V126.36H504V160.391H478.232V200H438.46V160.391H341.271ZM441.541 46.8619L381.603 126.36H441.541V46.8619Z" fill="url(#paint2_linear_14_1460)"/>
<path d="M271.508 167.676L302.922 60.3068L256.265 105.219L271.508 167.676Z" fill="url(#paint3_linear_14_1460)"/>
<path d="M256.252 105.264L302.922 60.3066L194.465 87.3334L256.252 105.264Z" fill="url(#paint4_linear_14_1460)"/>
</g>
<defs>
<filter id="filter0_d_14_1460" x="0" y="0" width="508" height="208" filterUnits="userSpaceOnUse" color-interpolation-filters="sRGB">
<feFlood flood-opacity="0" result="BackgroundImageFix"/>
<feColorMatrix in="SourceAlpha" type="matrix" values="0 0 0 0 0 0 0 0 0 0 0 0 0 0 0 0 0 0 127 0" result="hardAlpha"/>
<feOffset dy="4"/>
<feGaussianBlur stdDeviation="2"/>
<feComposite in2="hardAlpha" operator="out"/>
<feColorMatrix type="matrix" values="0 0 0 0 0 0 0 0 0 0 0 0 0 0 0 0 0 0 0.25 0"/>
<feBlend mode="normal" in2="BackgroundImageFix" result="effect1_dropShadow_14_1460"/>
<feBlend mode="normal" in="SourceGraphic" in2="effect1_dropShadow_14_1460" result="shape"/>
</filter>
<linearGradient id="paint0_linear_14_1460" x1="254" y1="0" x2="178.022" y2="200.703" gradientUnits="userSpaceOnUse">
<stop stop-color="#89F5FE"/>
<stop offset="1" stop-color="#444DFF"/>
</linearGradient>
<linearGradient id="paint1_linear_14_1460" x1="254" y1="0" x2="178.022" y2="200.703" gradientUnits="userSpaceOnUse">
<stop stop-color="#89F5FE"/>
<stop offset="1" stop-color="#444DFF"/>
</linearGradient>
<linearGradient id="paint2_linear_14_1460" x1="254" y1="0" x2="178.022" y2="200.703" gradientUnits="userSpaceOnUse">
<stop stop-color="#89F5FE"/>
<stop offset="1" stop-color="#444DFF"/>
</linearGradient>
<linearGradient id="paint3_linear_14_1460" x1="277.181" y1="89.5776" x2="271.614" y2="148.907" gradientUnits="userSpaceOnUse">
<stop offset="0.140582" stop-color="white"/>
<stop offset="1" stop-color="#AADAFF"/>
</linearGradient>
<linearGradient id="paint4_linear_14_1460" x1="286.523" y1="77.6943" x2="202.75" y2="87.6404" gradientUnits="userSpaceOnUse">
<stop stop-color="#F4FAFF"/>
<stop offset="1" stop-color="#A9D9FF"/>
</linearGradient>
</defs>
</svg>
