<svg width="34" height="34" viewBox="0 0 34 34" fill="none" xmlns="http://www.w3.org/2000/svg">
<path fill-rule="evenodd" clip-rule="evenodd" d="M24.2636 14C24.8722 14 25.3021 14.5958 25.1103 15.1733L21.7655 25.2427C21.6431 25.6675 21.2633 25.9589 20.8321 25.9589H12.763C12.3208 25.9589 11.9342 25.6527 11.8217 25.2134L8.84544 15.1661C8.67302 14.5841 9.10918 14 9.71622 14C10.1129 14 10.4637 14.2574 10.5826 14.6358L13.5134 23.9589H20.1051L23.4228 14.5942C23.5489 14.238 23.8858 14 24.2636 14Z" fill="#73828A"/>
<path d="M9.5 13C8.67157 13 8 12.3284 8 11.5C8 10.6716 8.67157 10 9.5 10H13.05C13.2816 8.85888 14.2905 8 15.5 8H18.5C19.7095 8 20.7184 8.85888 20.95 10H24.5C25.3284 10 26 10.6716 26 11.5C26 12.3284 25.3284 13 24.5 13H9.5Z" fill="#73828A"/>
</svg>
