<svg width="34" height="34" viewBox="0 0 34 34" fill="none" xmlns="http://www.w3.org/2000/svg">
<path d="M9.5 8.5C8.94772 8.5 8.5 8.94772 8.5 9.5V24.5C8.5 25.0523 8.94772 25.5 9.5 25.5H24.5C25.0523 25.5 25.5 25.0523 25.5 24.5V16C25.5 15.4477 25.0523 15 24.5 15C23.9477 15 23.5 15.4477 23.5 16V23.5H10.5V10.5H20.5C21.0523 10.5 21.5 10.0523 21.5 9.5C21.5 8.94772 21.0523 8.5 20.5 8.5H9.5Z" fill="#73828A"/>
<path d="M24.9662 12.6474C25.5999 12.1138 25.681 11.1675 25.1474 10.5338C24.6138 9.90016 23.6675 9.81905 23.0338 10.3527L16.9261 15.496C15.6559 16.5657 14.6215 17.8874 13.8884 19.3774L13.866 19.4229C13.6722 19.8168 14.0438 20.2514 14.463 20.1211L14.7298 20.0382C16.2571 19.5634 17.6741 18.7882 18.8975 17.7579L24.9662 12.6474Z" fill="#73828A"/>
</svg>
