<svg width="141" height="34" viewBox="0 0 141 34" fill="none" xmlns="http://www.w3.org/2000/svg">
<g clip-path="url(#clip0_56_703)">
<path d="M44.1803 22.7181V9.70758H39.6948V7.01758H51.7174V9.70758H47.0979V22.7181H44.1803Z" fill="black"/>
<path d="M57.3933 22.9426C56.1528 22.9426 55.0555 22.6808 54.108 22.1571C53.1573 21.6334 52.4185 20.9196 51.8886 20.0157C51.3587 19.1118 51.0938 18.0769 51.0938 16.908C51.0938 15.9823 51.2434 15.1344 51.5426 14.3739C51.8418 13.6102 52.2564 12.9494 52.7863 12.3883C53.3162 11.8273 53.9521 11.394 54.694 11.0885C55.4327 10.783 56.2463 10.6272 57.1284 10.6272C57.9045 10.6272 58.6308 10.7768 59.3041 11.076C59.9774 11.3753 60.5603 11.7836 61.0528 12.2979C61.5453 12.8122 61.9225 13.4263 62.1843 14.137C62.4461 14.8477 62.5677 15.6207 62.5552 16.4592L62.5334 17.4223H52.9546L52.4403 15.5396H60.2237L59.8652 15.9199V15.4274C59.8215 14.963 59.6719 14.5578 59.4163 14.2056C59.1607 13.8533 58.8366 13.579 58.4407 13.3764C58.0448 13.1738 57.6053 13.0741 57.1284 13.0741C56.3959 13.0741 55.7787 13.2175 55.2769 13.5011C54.775 13.7848 54.3978 14.1931 54.1454 14.723C53.8898 15.2529 53.7651 15.9168 53.7651 16.7085C53.7651 17.5003 53.9272 18.1361 54.2482 18.7034C54.5693 19.2707 55.0244 19.7102 55.6166 20.0157C56.2089 20.3212 56.8977 20.477 57.6926 20.477C58.2443 20.477 58.7555 20.3866 59.2168 20.209C59.6813 20.0282 60.18 19.7071 60.7193 19.2458L62.0877 21.1534C61.6824 21.5275 61.2242 21.8454 60.7068 22.1072C60.1894 22.3691 59.647 22.5748 59.0797 22.7244C58.5124 22.874 57.9513 22.9488 57.3965 22.9488L57.3933 22.9426Z" fill="black"/>
<path d="M65.0215 22.7183V6.12012H67.8019V22.7183H65.0215Z" fill="black"/>
<path d="M76.3704 22.9426C75.1298 22.9426 74.0326 22.6808 73.085 22.1571C72.1343 21.6334 71.3956 20.9196 70.8657 20.0157C70.3358 19.1118 70.0708 18.0769 70.0708 16.908C70.0708 15.9823 70.2204 15.1344 70.5197 14.3739C70.8189 13.6102 71.2335 12.9494 71.7634 12.3883C72.2933 11.8273 72.9292 11.394 73.671 11.0885C74.4098 10.783 75.2233 10.6272 76.1055 10.6272C76.8816 10.6272 77.6079 10.7768 78.2812 11.076C78.9545 11.3753 79.5373 11.7836 80.0298 12.2979C80.5223 12.8154 80.8995 13.4263 81.1613 14.137C81.4232 14.8477 81.5447 15.6207 81.5323 16.4592L81.5104 17.4223H71.9317L71.4174 15.5396H79.2007L78.8422 15.9199V15.4274C78.7986 14.963 78.649 14.5578 78.3934 14.2056C78.1378 13.8533 77.8136 13.579 77.4177 13.3764C77.0219 13.1738 76.5824 13.0741 76.1055 13.0741C75.3729 13.0741 74.7558 13.2175 74.2539 13.5011C73.7521 13.7848 73.3749 14.1931 73.1224 14.723C72.8668 15.2529 72.7421 15.9168 72.7421 16.7085C72.7421 17.5003 72.9042 18.1361 73.2253 18.7034C73.5463 19.2707 74.0014 19.7102 74.5937 20.0157C75.1859 20.3212 75.8748 20.477 76.6696 20.477C77.2214 20.477 77.7326 20.3866 78.1939 20.209C78.6583 20.0282 79.1602 19.7071 79.6963 19.2458L81.0647 21.1534C80.6626 21.5275 80.2013 21.8454 79.6838 22.1072C79.1695 22.3691 78.6272 22.5748 78.0567 22.7244C77.4894 22.874 76.9284 22.9488 76.3735 22.9488L76.3704 22.9426Z" fill="black"/>
<path d="M89.1786 27.8802C88.2964 27.8802 87.4174 27.7461 86.5415 27.4781C85.6656 27.21 84.9612 26.8578 84.4219 26.4245L85.41 24.3829C85.7249 24.6073 86.074 24.8006 86.4636 24.9658C86.8532 25.131 87.2678 25.2588 87.7073 25.346C88.1468 25.4364 88.5863 25.4801 89.0196 25.4801C89.8113 25.4801 90.4753 25.3554 91.0052 25.1091C91.5351 24.8629 91.9372 24.4888 92.2052 23.987C92.4733 23.4852 92.6105 22.8618 92.6105 22.1137V19.938L93.0126 20.0938C92.9222 20.5583 92.6759 20.9978 92.2707 21.4186C91.8686 21.8363 91.3574 22.1791 90.7465 22.4378C90.1324 22.6997 89.5059 22.8306 88.8637 22.8306C87.7416 22.8306 86.7504 22.5688 85.8901 22.0451C85.0297 21.5214 84.3502 20.8076 83.8484 19.9037C83.3465 18.9998 83.0972 17.9555 83.0972 16.7742C83.0972 15.5928 83.3434 14.5424 83.839 13.6229C84.3346 12.7034 85.0079 11.9771 85.8682 11.4472C86.7286 10.9173 87.698 10.6523 88.7734 10.6523C89.2222 10.6523 89.6555 10.7053 90.0732 10.8082C90.4909 10.9111 90.8774 11.0638 91.2296 11.257C91.5818 11.4503 91.8998 11.6685 92.1834 11.9085C92.4671 12.1485 92.6977 12.401 92.8785 12.6722C93.0593 12.9434 93.1715 13.2021 93.2152 13.4577L92.6323 13.6385L92.6759 10.9017H95.3909V21.9111C95.3909 22.868 95.2475 23.7127 94.9639 24.4452C94.6802 25.1777 94.2687 25.8011 93.7295 26.3185C93.1902 26.8329 92.5419 27.2225 91.7782 27.4843C91.0145 27.7461 90.148 27.8771 89.1755 27.8771L89.1786 27.8802ZM89.2908 20.4772C89.9641 20.4772 90.5594 20.3214 91.0738 20.0066C91.5912 19.6917 91.9902 19.2585 92.2738 18.7068C92.5575 18.155 92.7009 17.5192 92.7009 16.7991C92.7009 16.0791 92.5544 15.4183 92.2645 14.8603C91.9746 14.3024 91.5725 13.8629 91.0644 13.5481C90.5563 13.2332 89.9641 13.0774 89.2908 13.0774C88.6175 13.0774 88.0284 13.2395 87.5203 13.5605C87.0122 13.8816 86.6101 14.3242 86.3202 14.8853C86.0272 15.4463 85.8838 16.0853 85.8838 16.8022C85.8838 17.5192 86.0303 18.1363 86.3202 18.6974C86.6132 19.2585 87.0122 19.6949 87.5203 20.0097C88.0284 20.3245 88.6206 20.4803 89.2908 20.4803V20.4772Z" fill="black"/>
<path d="M98.5796 22.7184V10.8986H101.295L101.338 14.6671L100.958 13.813C101.123 13.2145 101.407 12.6753 101.809 12.1984C102.214 11.7215 102.679 11.3412 103.212 11.0669C103.741 10.7895 104.299 10.6523 104.882 10.6523C105.138 10.6523 105.378 10.6742 105.612 10.7209C105.842 10.7646 106.036 10.8175 106.182 10.8768L105.443 13.9034C105.278 13.813 105.076 13.7382 104.839 13.679C104.599 13.6198 104.359 13.5886 104.122 13.5886C103.748 13.5886 103.392 13.6603 103.056 13.8005C102.719 13.9439 102.423 14.1403 102.17 14.3959C101.918 14.6515 101.718 14.9445 101.575 15.2811C101.432 15.6178 101.363 15.9949 101.363 16.4126V22.7153H98.5827L98.5796 22.7184Z" fill="black"/>
<path d="M111.993 22.9427C111.02 22.9427 110.138 22.6747 109.346 22.1354C108.555 21.5962 107.919 20.8637 107.439 19.9379C106.959 19.0122 106.722 17.9555 106.722 16.7741C106.722 15.5928 106.962 14.5392 107.439 13.6104C107.919 12.6846 108.567 11.9583 109.39 11.4347C110.213 10.911 111.139 10.6492 112.17 10.6492C112.769 10.6492 113.314 10.7364 113.807 10.9079C114.299 11.0793 114.733 11.3224 115.107 11.6373C115.481 11.9521 115.789 12.3105 116.039 12.7126C116.285 13.1179 116.453 13.5511 116.544 14.0124L115.939 13.8566V10.8985H118.719V22.7183H115.914V19.8912L116.565 19.779C116.459 20.1842 116.269 20.5738 115.995 20.9572C115.718 21.3375 115.375 21.6741 114.963 21.9671C114.552 22.2601 114.097 22.4939 113.595 22.6747C113.093 22.8555 112.56 22.9427 111.993 22.9427V22.9427ZM112.756 20.499C113.398 20.499 113.969 20.3431 114.461 20.0283C114.954 19.7135 115.34 19.2771 115.618 18.716C115.895 18.155 116.032 17.5098 116.032 16.7773C116.032 16.0448 115.895 15.4245 115.618 14.8696C115.34 14.3179 114.957 13.8815 114.461 13.5698C113.969 13.255 113.398 13.0992 112.756 13.0992C112.114 13.0992 111.547 13.255 111.064 13.5698C110.577 13.8846 110.2 14.3179 109.932 14.8696C109.664 15.4245 109.527 16.0572 109.527 16.7773C109.527 17.4973 109.661 18.1581 109.932 18.716C110.203 19.274 110.577 19.7135 111.064 20.0283C111.55 20.3431 112.114 20.499 112.756 20.499Z" fill="black"/>
<path d="M121.886 22.7182V10.8985H124.601L124.645 13.2768L124.196 13.4575C124.33 13.0679 124.533 12.7063 124.801 12.3697C125.069 12.0331 125.393 11.7432 125.764 11.4938C126.138 11.2476 126.534 11.0543 126.951 10.9109C127.369 10.7675 127.796 10.699 128.229 10.699C128.872 10.699 129.445 10.7987 129.947 11.0013C130.449 11.2039 130.867 11.5219 131.203 11.9551C131.54 12.3884 131.789 12.9432 131.954 13.6165L131.527 13.5261L131.708 13.1677C131.873 12.8092 132.104 12.485 132.403 12.192C132.702 11.899 133.039 11.6403 133.413 11.4065C133.787 11.1759 134.18 10.9982 134.591 10.8798C135.003 10.7613 135.411 10.699 135.813 10.699C136.711 10.699 137.459 10.8798 138.058 11.2382C138.656 11.5967 139.105 12.1422 139.404 12.8747C139.703 13.6072 139.853 14.5111 139.853 15.5896V22.7214H137.073V15.7673C137.073 15.1688 136.995 14.6763 136.836 14.2867C136.68 13.897 136.44 13.6103 136.119 13.4233C135.798 13.2362 135.396 13.1427 134.919 13.1427C134.545 13.1427 134.189 13.2051 133.853 13.3329C133.516 13.4607 133.229 13.6383 132.989 13.8721C132.749 14.1028 132.562 14.3677 132.428 14.667C132.294 14.9662 132.226 15.2935 132.226 15.6551V22.7214H129.445V15.7423C129.445 15.175 129.364 14.6981 129.199 14.3178C129.034 13.9376 128.797 13.6446 128.482 13.442C128.167 13.2394 127.787 13.1396 127.338 13.1396C126.964 13.1396 126.612 13.202 126.284 13.3297C125.954 13.4575 125.67 13.6321 125.433 13.8565C125.193 14.081 125.006 14.3428 124.872 14.642C124.738 14.9413 124.67 15.2685 124.67 15.6301V22.7182H121.889H121.886Z" fill="black"/>
</g>
<circle cx="17.2549" cy="17" r="17" fill="url(#paint0_linear_56_703)"/>
<path d="M23.9699 28.985V5.27002L17.1699 17.17L23.9699 28.985Z" fill="url(#paint1_linear_56_703)"/>
<path d="M17.1698 17.17L23.9698 5.27002L3.56982 17.17H17.1698Z" fill="url(#paint2_linear_56_703)"/>
<defs>
<linearGradient id="paint0_linear_56_703" x1="26.2649" y1="2.21" x2="11.3049" y2="27.37" gradientUnits="userSpaceOnUse">
<stop stop-color="#88F4FD"/>
<stop offset="1" stop-color="#434CFF"/>
</linearGradient>
<linearGradient id="paint1_linear_56_703" x1="20.4849" y1="12.75" x2="22.8649" y2="25.16" gradientUnits="userSpaceOnUse">
<stop offset="0.140582" stop-color="white"/>
<stop offset="1" stop-color="#AADAFF"/>
</linearGradient>
<linearGradient id="paint2_linear_56_703" x1="21.6748" y1="9.77502" x2="5.26982" y2="16.745" gradientUnits="userSpaceOnUse">
<stop stop-color="#F4FAFF"/>
<stop offset="1" stop-color="#A9D9FF"/>
</linearGradient>
<clipPath id="clip0_56_703">
<rect width="100.158" height="21.76" fill="white" transform="translate(39.6948 6.12012)"/>
</clipPath>
</defs>
</svg>
