<svg width="18" height="18" viewBox="0 0 18 18" fill="none" xmlns="http://www.w3.org/2000/svg">
<path fill-rule="evenodd" clip-rule="evenodd" d="M9.94259 5.56066C9.35681 4.97487 9.35681 4.02513 9.94259 3.43934C10.5284 2.85355 11.4781 2.85355 12.0639 3.43934L16.3066 7.68198C16.3139 7.68933 16.3212 7.69674 16.3283 7.7042C16.5912 7.9744 16.753 8.3433 16.753 8.75C16.753 9.19266 16.5613 9.59054 16.2563 9.8651L12.0607 14.0607C11.475 14.6464 10.5252 14.6464 9.93942 14.0607C9.35363 13.4749 9.35363 12.5251 9.93942 11.9393L11.6288 10.25H3.5C2.67157 10.25 2 9.57843 2 8.75C2 7.92157 2.67157 7.25 3.5 7.25H11.6319L9.94259 5.56066Z" fill="#10415E"/>
</svg>
